<?xml version="1.0"?>
<svg xmlns="http://www.w3.org/2000/svg" xmlns:xlink="http://www.w3.org/1999/xlink" xmlns:svgjs="http://svgjs.com/svgjs" version="1.1" width="512" height="512" x="0" y="0" viewBox="0 0 95 95" style="enable-background:new 0 0 512 512" xml:space="preserve" class=""><g>
<g xmlns="http://www.w3.org/2000/svg">
	<g>
		<path d="M23,35H2c-1.104,0-2,0.896-2,2v21c0,1.104,0.896,2,2,2h21c1.104,0,2-0.896,2-2V37C25,35.896,24.105,35,23,35z" fill="#7b7c7d" data-original="#000000" style="" class=""/>
		<path d="M58,35H37c-1.104,0-2,0.896-2,2v21c0,1.104,0.896,2,2,2h21c1.104,0,2-0.896,2-2V37C60,35.896,59.105,35,58,35z" fill="#7b7c7d" data-original="#000000" style="" class=""/>
		<path d="M93,35H72c-1.104,0-2,0.896-2,2v21c0,1.104,0.896,2,2,2h21c1.104,0,2-0.896,2-2V37C95,35.896,94.105,35,93,35z" fill="#7b7c7d" data-original="#000000" style="" class=""/>
	</g>
</g>
<g xmlns="http://www.w3.org/2000/svg">
</g>
<g xmlns="http://www.w3.org/2000/svg">
</g>
<g xmlns="http://www.w3.org/2000/svg">
</g>
<g xmlns="http://www.w3.org/2000/svg">
</g>
<g xmlns="http://www.w3.org/2000/svg">
</g>
<g xmlns="http://www.w3.org/2000/svg">
</g>
<g xmlns="http://www.w3.org/2000/svg">
</g>
<g xmlns="http://www.w3.org/2000/svg">
</g>
<g xmlns="http://www.w3.org/2000/svg">
</g>
<g xmlns="http://www.w3.org/2000/svg">
</g>
<g xmlns="http://www.w3.org/2000/svg">
</g>
<g xmlns="http://www.w3.org/2000/svg">
</g>
<g xmlns="http://www.w3.org/2000/svg">
</g>
<g xmlns="http://www.w3.org/2000/svg">
</g>
<g xmlns="http://www.w3.org/2000/svg">
</g>
</g></svg>
