<?xml version="1.0"?>
<svg xmlns="http://www.w3.org/2000/svg" xmlns:xlink="http://www.w3.org/1999/xlink" xmlns:svgjs="http://svgjs.com/svgjs" version="1.1" width="512" height="512" x="0" y="0" viewBox="0 0 336.4 336.4" style="enable-background:new 0 0 512 512" xml:space="preserve" class=""><g transform="matrix(-1,0,0,1,336.39996337890625,0)">
<g xmlns="http://www.w3.org/2000/svg">
	<g>
		<g>
			<path style="" d="M329.2,63h-36.4V35c0-3.6-3.2-6.8-6.8-6.8H6.8C3.2,28.2,0,31.4,0,35v180c0,3.6,3.2,6.8,6.8,6.8     h36.4v28c0,3.6,3.2,6.8,6.8,6.8h35.2v44.8c0,2.4,1.6,4.8,3.6,6c0.8,0.8,2,0.8,3.2,0.8s2.8-0.4,4-1.2l73.2-50.4h160.4     c3.6,0,6.8-3.2,6.8-6.8v-180C336,65.8,332.8,63,329.2,63z M43.2,69.8v138.4H13.6V41.8h265.6V63H50C46.4,63,43.2,66.2,43.2,69.8z      M322.4,243H166.8c-1.2,0-2.8,0.4-4,1.2l-64,44.4v-38.8c0-3.6-3.2-6.8-6.8-6.8H56.8V76.6h265.6V243z" fill="#231f20" data-original="#231f20" class=""/>
			<path style="" d="M105.2,120.6H274c3.6,0,6.8-3.2,6.8-6.8c0-4-3.2-6.8-6.8-6.8H105.2c-3.6,0-6.8,3.2-6.8,6.8     C98.4,117.4,101.6,120.6,105.2,120.6z" fill="#231f20" data-original="#231f20" class=""/>
			<path style="" d="M105.2,163.8H274c3.6,0,6.8-3.2,6.8-6.8c0-3.6-3.2-6.8-6.8-6.8H105.2c-3.6,0-6.8,3.2-6.8,6.8     C98.4,160.6,101.6,163.8,105.2,163.8z" fill="#231f20" data-original="#231f20" class=""/>
			<path style="" d="M105.2,207h94.4c3.6,0,6.8-3.2,6.8-6.8c0-4-2.8-6.8-6.8-6.8h-94.4c-3.6,0-6.8,3.2-6.8,6.8     S101.6,207,105.2,207z" fill="#231f20" data-original="#231f20" class=""/>
		</g>
	</g>
</g>
<g xmlns="http://www.w3.org/2000/svg">
</g>
<g xmlns="http://www.w3.org/2000/svg">
</g>
<g xmlns="http://www.w3.org/2000/svg">
</g>
<g xmlns="http://www.w3.org/2000/svg">
</g>
<g xmlns="http://www.w3.org/2000/svg">
</g>
<g xmlns="http://www.w3.org/2000/svg">
</g>
<g xmlns="http://www.w3.org/2000/svg">
</g>
<g xmlns="http://www.w3.org/2000/svg">
</g>
<g xmlns="http://www.w3.org/2000/svg">
</g>
<g xmlns="http://www.w3.org/2000/svg">
</g>
<g xmlns="http://www.w3.org/2000/svg">
</g>
<g xmlns="http://www.w3.org/2000/svg">
</g>
<g xmlns="http://www.w3.org/2000/svg">
</g>
<g xmlns="http://www.w3.org/2000/svg">
</g>
<g xmlns="http://www.w3.org/2000/svg">
</g>
</g></svg>
